<svg width="1024" height="1024" viewBox="0 0 1024 1024" xmlns="http://www.w3.org/2000/svg">
  <!-- Foreground icon only (transparent background for adaptive icon) -->
  <defs>
    <linearGradient id="iconGradient" x1="0%" y1="0%" x2="100%" y2="100%">
      <stop offset="0%" style="stop-color:#FFFFFF;stop-opacity:1" />
      <stop offset="100%" style="stop-color:#F0F0F0;stop-opacity:1" />
    </linearGradient>
  </defs>
  
  <!-- Music Note -->
  <g transform="translate(200, 150) scale(0.9)">
    <!-- Note stem -->
    <rect x="420" y="80" width="60" height="480" rx="30" fill="url(#iconGradient)"/>
    <!-- Note flag -->
    <path d="M 480 80 Q 580 100 600 180 Q 580 200 520 180 L 480 160 Z" fill="url(#iconGradient)"/>
    <!-- Note head -->
    <ellipse cx="450" cy="560" rx="120" ry="90" fill="url(#iconGradient)"/>
  </g>
  
  <!-- Dollar sign overlay -->
  <g transform="translate(512, 512) scale(0.9)">
    <path d="M 0,-180 L 0,-240 M 0,180 L 0,240" stroke="url(#iconGradient)" stroke-width="45" stroke-linecap="round"/>
    <path d="M -80,-120 Q -100,-180 0,-180 Q 100,-180 100,-100 Q 100,-40 0,-20 Q -100,0 -100,80 Q -100,160 0,160 Q 100,160 80,100" 
          stroke="url(#iconGradient)" stroke-width="50" fill="none" stroke-linecap="round"/>
  </g>
</svg>
